<svg width="49" height="48" viewBox="0 0 49 48" fill="none" xmlns="http://www.w3.org/2000/svg">
<path d="M23.864 3.91997C24.3567 3.06665 25.5884 3.06665 26.081 3.91998L48.8365 43.3332C49.3292 44.1866 48.7133 45.2532 47.728 45.2532H2.21703C1.23169 45.2532 0.615849 44.1866 1.10853 43.3332L23.864 3.91997Z" fill="#032801"/>
<path fill-rule="evenodd" clip-rule="evenodd" d="M25 20C28.9956 20 32.4038 23.3161 33.7278 24.7985C34.0907 25.2049 34.0907 25.7951 33.7278 26.2015C32.4038 27.6839 28.9956 31 25 31C21.0044 31 17.5962 27.6839 16.2722 26.2015C15.9093 25.7951 15.9093 25.2049 16.2722 24.7985C17.5962 23.3161 21.0044 20 25 20ZM25 22.1389C22.9417 22.1389 21.2731 23.6437 21.2731 25.5C21.2731 27.3563 22.9417 28.8611 25 28.8611C27.0583 28.8611 28.7269 27.3563 28.7269 25.5C28.7269 23.6437 27.0583 22.1389 25 22.1389Z" fill="white"/>
<path d="M37.2239 33.3008C37.2944 33.2368 37.3429 33.1498 37.3552 33.0541C37.3675 32.9585 37.3431 32.8627 37.2865 32.7867C37.2299 32.7107 37.1451 32.6598 37.05 32.6442C36.9548 32.6285 36.8576 32.6501 36.7761 32.6992C36.7761 32.6992 36.7761 32.6992 36.7761 32.6992C36.4301 32.8984 36.0482 33.0965 35.6738 33.2807C32.2717 34.9268 28.622 35.9915 25 36C25 36 25 36 25 36C21.378 35.9915 17.7283 34.9268 14.3262 33.2807C13.9518 33.0965 13.5699 32.8984 13.2239 32.6992C13.1424 32.6501 13.0452 32.6285 12.95 32.6442C12.8549 32.6598 12.7701 32.7107 12.7135 32.7867C12.6569 32.8627 12.6325 32.9585 12.6448 33.0541C12.6571 33.1498 12.7056 33.2368 12.7761 33.3008C12.7761 33.3008 12.7761 33.3008 12.7761 33.3008C13.1174 33.5994 13.4578 33.8636 13.8131 34.1245C17.0001 36.4299 20.8916 37.9885 25 38C25 38 25 38 25 38C29.1084 37.9885 32.9999 36.4299 36.1869 34.1245C36.5422 33.8636 36.8826 33.5994 37.2239 33.3008Z" fill="white"/>
<circle cx="5" cy="9" r="3" fill="#032801"/>
<circle cx="16" cy="3" r="2" fill="#032801"/>
<circle cx="34" cy="3" r="2" fill="#032801"/>
<circle cx="10" cy="19" r="2" fill="#032801"/>
<circle cx="40" cy="19" r="2" fill="#032801"/>
<circle cx="45" cy="9" r="3" fill="#032801"/>
</svg>
